<mxfile host="app.diagrams.net" modified="2023-08-25T16:53:19.719Z" agent="Mozilla/5.0 (Windows NT 10.0; Win64; x64) AppleWebKit/537.36 (KHTML, like Gecko) Chrome/116.0.0.0 Safari/537.36" etag="1D7pa61_qX8ACIKo6gnG" version="21.6.9" type="device">
  <diagram name="Página-1" id="NzWueQmZFCDX46-pHtz3">
    <mxGraphModel dx="1235" dy="675" grid="1" gridSize="10" guides="1" tooltips="1" connect="1" arrows="1" fold="1" page="1" pageScale="1" pageWidth="827" pageHeight="1169" math="0" shadow="0">
      <root>
        <mxCell id="0" />
        <mxCell id="1" parent="0" />
        <mxCell id="e3FiE91RJy4eAdPHZp9D-10" value="Golfinho" style="swimlane;fontStyle=1;align=center;verticalAlign=top;childLayout=stackLayout;horizontal=1;startSize=26;horizontalStack=0;resizeParent=1;resizeParentMax=0;resizeLast=0;collapsible=1;marginBottom=0;whiteSpace=wrap;html=1;fillColor=#dae8fc;strokeColor=#6c8ebf;" vertex="1" parent="1">
          <mxGeometry x="220" y="850" width="260" height="200" as="geometry" />
        </mxCell>
        <mxCell id="e3FiE91RJy4eAdPHZp9D-11" value="+ nome: string&lt;br&gt;+ idade: int&lt;br&gt;+ peso: decimal&lt;br&gt;+ espécie: string&lt;br&gt;+ cor: string" style="text;strokeColor=none;fillColor=none;align=left;verticalAlign=top;spacingLeft=4;spacingRight=4;overflow=hidden;rotatable=0;points=[[0,0.5],[1,0.5]];portConstraint=eastwest;whiteSpace=wrap;html=1;" vertex="1" parent="e3FiE91RJy4eAdPHZp9D-10">
          <mxGeometry y="26" width="260" height="94" as="geometry" />
        </mxCell>
        <mxCell id="e3FiE91RJy4eAdPHZp9D-12" value="" style="line;strokeWidth=1;fillColor=none;align=left;verticalAlign=middle;spacingTop=-1;spacingLeft=3;spacingRight=3;rotatable=0;labelPosition=right;points=[];portConstraint=eastwest;strokeColor=inherit;" vertex="1" parent="e3FiE91RJy4eAdPHZp9D-10">
          <mxGeometry y="120" width="260" height="20" as="geometry" />
        </mxCell>
        <mxCell id="e3FiE91RJy4eAdPHZp9D-21" value="+ nadar()&lt;br&gt;&amp;nbsp;+ comer()&lt;br&gt;+ caçar()" style="text;html=1;align=center;verticalAlign=middle;resizable=0;points=[];autosize=1;strokeColor=none;fillColor=none;rotation=0;" vertex="1" parent="e3FiE91RJy4eAdPHZp9D-10">
          <mxGeometry y="140" width="260" height="60" as="geometry" />
        </mxCell>
      </root>
    </mxGraphModel>
  </diagram>
</mxfile>
